<svg width="400" height="400" viewBox="0 0 400 400" fill="none" xmlns="http://www.w3.org/2000/svg">
<defs>
<style>
    .octo-favicon {
      fill: #181A1B;
    }
    @media (prefers-color-scheme: dark) {
      .octo-favicon {
        fill: #ffffff;
      }
    }
</style>
</defs>
<path class="octo-favicon" d="M166.38 358.499C180.338 346.813 194.3 335.128 208.257 323.443C205.396 348.963 202.539 374.479 199.678 400C211.49 394.775 223.307 389.55 235.12 384.325C240.009 340.318 244.899 296.305 249.789 252.293C218.052 278.973 186.315 305.653 154.573 332.337C158.507 341.055 162.441 349.777 166.375 358.494L166.38 358.499Z"/>
<path class="octo-favicon" d="M74.2998 261.46L64.1495 288.303L118.55 293.126C98.4835 309.147 78.4168 325.174 58.3501 341.195L94.4936 355.172C129.072 327.512 163.65 299.851 198.222 272.185C156.915 268.607 115.607 265.033 74.2998 261.455V261.46Z"/>
<path class="octo-favicon" d="M67.6566 154.581C58.9397 158.515 50.2176 162.449 41.5007 166.383C53.186 180.341 64.8712 194.303 76.5565 208.261C51.036 205.399 25.5205 202.542 0 199.681C5.22507 211.493 10.4502 223.311 15.6752 235.123C59.6817 240.013 103.693 244.903 147.705 249.792C121.026 218.055 94.3461 186.318 67.6617 154.576L67.6566 154.581Z"/>
<path class="octo-favicon" d="M138.535 74.301L111.692 64.1506L106.869 118.552C90.8481 98.4852 74.8222 78.4181 58.8013 58.3511L44.8237 94.4951C72.4841 129.074 100.144 163.652 127.81 198.226C131.388 156.917 134.961 115.609 138.54 74.301H138.535Z"/>
<path class="octo-favicon" d="M233.615 41.5014C219.658 53.1868 205.695 64.8723 191.738 76.5577L200.318 0C188.506 5.22516 176.688 10.4503 164.876 15.6755C159.986 59.6878 155.097 103.695 150.207 147.707C181.944 121.027 213.68 94.3476 245.422 67.6627C241.488 58.9457 237.554 50.2235 233.62 41.5064L233.615 41.5014Z"/>
<path d="M325.695 138.536C329.08 129.591 332.46 120.64 335.845 111.694C317.71 110.088 299.58 108.477 281.445 106.87C301.511 90.8493 321.578 74.8231 341.645 58.802L305.501 44.8242C270.923 72.485 236.345 100.146 201.772 127.812C243.08 131.39 284.388 134.963 325.695 138.542V138.536Z" fill="#FF4F30"/>
<path class="octo-favicon" d="M400 200.322C394.775 188.509 389.55 176.692 384.325 164.879C340.318 159.989 296.307 155.1 252.295 150.21C278.974 181.947 305.654 213.684 332.338 245.427C341.055 241.493 349.777 237.559 358.494 233.624C346.809 219.667 335.124 205.704 323.438 191.747C348.959 194.609 374.474 197.465 399.995 200.327L400 200.322Z"/>
<path class="octo-favicon" d="M261.456 325.7L288.298 335.85C289.904 317.715 291.515 299.584 293.121 281.449C309.142 301.516 325.168 321.583 341.189 341.65L355.167 305.506C327.506 270.927 299.846 236.349 272.18 201.775C268.602 243.084 265.029 284.392 261.451 325.7H261.456Z"/>
</svg>
