<svg xmlns="http://www.w3.org/2000/svg" width="37" height="37" viewBox="0 0 37 37" fill="none">
<path d="M15.344 33.0611C16.6312 31.9835 17.9189 30.9058 19.2061 29.8282C18.9422 32.1818 18.6787 34.5349 18.4148 36.8885C19.5042 36.4066 20.594 35.9247 21.6834 35.4429C22.1343 31.3844 22.5853 27.3255 23.0362 23.2666C20.1093 25.7271 17.1825 28.1875 14.2551 30.6485C14.6179 31.4524 14.9808 32.2568 15.3436 33.0607L15.344 33.0611Z" fill="#1E2124"/>
<path d="M6.85216 24.1128L5.91607 26.5882L10.9331 27.0331C9.08248 28.5106 7.23185 29.9886 5.38123 31.4661L8.71451 32.7551C11.9034 30.2042 15.0923 27.6532 18.2808 25.1018C14.4712 24.7718 10.6617 24.4423 6.85216 24.1123V24.1128Z" fill="#1E2124"/>
<path d="M6.23953 14.2554C5.43563 14.6182 4.63125 14.981 3.82734 15.3438C4.905 16.631 5.98266 17.9186 7.06031 19.2058C4.70672 18.9419 2.35359 18.6785 0 18.4146C0.481875 19.5039 0.96375 20.5938 1.44563 21.6832C5.50406 22.1341 9.56297 22.585 13.6219 23.036C11.1614 20.1091 8.70094 17.1822 6.24 14.2549L6.23953 14.2554Z" fill="#1E2124"/>
<path d="M12.7763 6.8518L10.3008 5.9157L9.85594 10.9327C8.37844 9.08211 6.90047 7.23148 5.42297 5.38086L4.13391 8.71414C6.68485 11.903 9.23579 15.092 11.7872 18.2804C12.1172 14.4709 12.4467 10.6613 12.7767 6.8518H12.7763Z" fill="#1E2124"/>
<path d="M21.5447 3.82734C20.2575 4.905 18.9699 5.98266 17.6827 7.06031L18.4739 0C17.3846 0.481875 16.2947 0.96375 15.2054 1.44563C14.7544 5.50453 14.3035 9.56297 13.8525 13.6219C16.7794 11.1614 19.7063 8.70094 22.6336 6.24C22.2708 5.43609 21.908 4.63172 21.5452 3.82781L21.5447 3.82734Z" fill="#1E2124"/>
<path d="M30.0365 12.7761C30.3487 11.9511 30.6604 11.1257 30.9726 10.3007C29.3001 10.1525 27.6281 10.0039 25.9556 9.85582C27.8062 8.37832 29.6568 6.90035 31.5074 5.42285L28.1742 4.13379C24.9853 6.68473 21.7963 9.23566 18.6079 11.7871C22.4174 12.1171 26.227 12.4466 30.0365 12.7766V12.7761Z" fill="#FF4F30"/>
<path d="M36.8892 18.4739C36.4073 17.3846 35.9255 16.2947 35.4436 15.2054C31.3851 14.7544 27.3262 14.3035 23.2673 13.8525C25.7278 16.7794 28.1883 19.7063 30.6492 22.6336C31.4531 22.2708 32.2575 21.908 33.0614 21.5452C31.9837 20.258 30.9061 18.9704 29.8284 17.6832C32.182 17.9471 34.5351 18.2105 36.8887 18.4744L36.8892 18.4739Z" fill="#1E2124"/>
<path d="M24.1125 30.037L26.588 30.9731C26.7361 29.3006 26.8847 27.6286 27.0328 25.9561C28.5103 27.8067 29.9883 29.6573 31.4658 31.5079L32.7549 28.1746C30.2039 24.9857 27.653 21.7968 25.1016 18.6084C24.7716 22.4179 24.4421 26.2275 24.1121 30.037H24.1125Z" fill="#1E2124"/>
</svg>